<?xml version="1.0" encoding="UTF-8" standalone="no"?>
<!-- Created with Inkscape (http://www.inkscape.org/) -->

<svg
   width="29.569096mm"
   height="28.853596mm"
   viewBox="0 0 29.569096 28.853596"
   version="1.1"
   id="svg1"
   xml:space="preserve"
   sodipodi:docname="folix_wc.svg"
   inkscape:version="1.3.2 (091e20e, 2023-11-25)"
   xmlns:inkscape="http://www.inkscape.org/namespaces/inkscape"
   xmlns:sodipodi="http://sodipodi.sourceforge.net/DTD/sodipodi-0.dtd"
   xmlns:xlink="http://www.w3.org/1999/xlink"
   xmlns="http://www.w3.org/2000/svg"
   xmlns:svg="http://www.w3.org/2000/svg"><sodipodi:namedview
     id="namedview1"
     pagecolor="#ffffff"
     bordercolor="#000000"
     borderopacity="0.25"
     inkscape:showpageshadow="2"
     inkscape:pageopacity="0.0"
     inkscape:pagecheckerboard="0"
     inkscape:deskcolor="#d1d1d1"
     inkscape:document-units="mm"
     showgrid="true"
     inkscape:zoom="8"
     inkscape:cx="54.75"
     inkscape:cy="23.3125"
     inkscape:window-width="1920"
     inkscape:window-height="1123"
     inkscape:window-x="0"
     inkscape:window-y="0"
     inkscape:window-maximized="1"
     inkscape:current-layer="layer1"
     showguides="false"><inkscape:grid
       id="grid1"
       units="mm"
       originx="-63.216552"
       originy="-20.669"
       spacingx="0.99999998"
       spacingy="1"
       empcolor="#0099e5"
       empopacity="0.30196078"
       color="#0099e5"
       opacity="0.14901961"
       empspacing="5"
       dotted="false"
       gridanglex="30"
       gridanglez="30"
       visible="true" /></sodipodi:namedview><defs
     id="defs1"><inkscape:path-effect
       effect="bspline"
       id="path-effect26"
       is_visible="true"
       lpeversion="1.3"
       weight="33.333333"
       steps="2"
       helper_size="0"
       apply_no_weight="true"
       apply_with_weight="true"
       only_selected="false"
       uniform="false" /></defs><g
     inkscape:label="Capa 1"
     inkscape:groupmode="layer"
     id="layer1"
     style="display:inline"
     transform="translate(-63.21655,-20.669)"><path
       style="fill:#f72400;fill-opacity:1;stroke-width:0.264583"
       d="m 66.085674,31.3926 c 0,0 -0.08567,1.064238 -0.08567,-9.935762 10e-7,-2.781693 6.450045,2.543161 6.999998,4.543161 0.774954,2.818256 -6.914328,5.392601 -6.914328,5.392601 z"
       id="path2"
       sodipodi:nodetypes="cssc"
       inkscape:label="path2" /><use
       x="0"
       y="0"
       xlink:href="#path2"
       id="use65"
       transform="matrix(-1,0,0,1,156,-1.5489698e-4)" /><path
       style="fill:#ffffff;fill-opacity:1;stroke-width:0.265723"
       d="m 65.99551,22.45821 c -0.0013,-2.163877 5.672384,3.753646 4.714096,4.320109 -2.702476,1.597482 -4.660846,4.878419 -4.660846,4.878419 0,0 -0.04944,-3.137361 -0.05325,-9.198528 z"
       id="path3"
       sodipodi:nodetypes="sscss"
       inkscape:label="path3" /><use
       x="0"
       y="0"
       xlink:href="#path3"
       id="use66"
       transform="matrix(-1,0,0,1,156,-1.5489698e-4)" /><path
       id="path1"
       clip-path="none"
       style="fill:#f72400;fill-opacity:1;stroke-width:0.264583"
       inkscape:label="path1"
       d="m 89.076217,43.207182 -6.849711,-8.775175 -9.126058,12.29744 4.899442,2.793112 z" /><path
       id="path86"
       clip-path="none"
       style="fill:#f72400;fill-opacity:1;stroke-width:0.264583"
       inkscape:label="path1"
       d="m 78.910429,25.024312 -6.320028,21.414197 0.510047,0.290938 13.89941,-18.729606 c -1.193777,-1.011599 -2.519189,-1.950385 -3.999756,-2.456697 -1.085965,-0.371371 -2.972346,-0.481695 -4.089673,-0.518832 z" /><path
       id="path88"
       clip-path="none"
       style="fill:#fa0666;fill-opacity:1;stroke-width:0.264583"
       inkscape:label="path1"
       d="m 86.999858,27.999841 c -2.235714,1.704707 -3.420304,4.101137 -4.773352,6.432166 l 6.849711,8.775175 0.363802,-0.207223 c 0,0 4.039571,-2.854657 3.241146,-5.198132 -0.862452,-2.531385 -2.477763,-7.087318 -5.681307,-9.801986 z"
       sodipodi:nodetypes="ccccsc" /><path
       id="path89"
       clip-path="none"
       style="fill:#fb6a01;fill-opacity:1;stroke-width:0.264583"
       inkscape:label="path1"
       d="m 75.943685,25.080123 c -5.909887,0.501633 -11.892943,8.478603 -12.720154,13.535091 0.164954,2.141732 3.336231,4.384745 3.336231,4.384745 l 6.030639,3.43855 c 2.179866,-7.10506 4.597851,-13.983433 6.320028,-21.414197 -0.514762,-0.01711 -0.910539,-0.02429 -0.910539,-0.02429 0,0 -0.93801,0.0022 -2.056205,0.0801 z"
       sodipodi:nodetypes="ccccccc" /><path
       id="path84"
       clip-path="none"
       style="fill:#fb6a01;fill-opacity:1;stroke-width:0.264583"
       inkscape:label="path1"
       d="m 63.849333,37.949105 0.08372,-1.863969 c -0.235066,0.626455 -0.444698,1.218499 -0.614433,1.716691 -0.09069,0.266185 -0.116222,0.538945 -0.09508,0.813387 z" /><rect
       style="fill:#f72400;fill-opacity:1;stroke:none;stroke-width:0.0799999;stroke-opacity:0"
       id="rect2"
       width="4.0000029"
       height="5.9986453"
       x="76"
       y="37" /><path
       id="path90"
       clip-path="none"
       style="fill:#f7df04;fill-opacity:1;stroke-width:0.264583"
       inkscape:label="path1"
       d="m 75.943685,25.080123 c -1.019052,0.07096 -2.187143,0.204371 -2.94349,0.463021 -1.480563,0.50631 -2.806502,1.4451 -4.000272,2.456697 -2.550663,2.161415 -4.084473,5.476031 -5.043103,8.020699 -0.0084,0.02235 -0.01542,0.04233 -0.02377,0.0646 l -0.08372,1.863969 c 3.062041,-5.782545 5.96669,-11.797877 12.094355,-12.868986 z"
       sodipodi:nodetypes="csssccc" /><path
       style="display:none;fill:#ff6600;fill-opacity:1;stroke-width:0.264583"
       d="m 78.959155,25.02084 c -1.227508,3.396443 -2.043819,6.664704 -2.959154,9.979158 l -11.120826,6.536034 c -1.330532,-1.352861 -1.808603,-2.514476 -1.630574,-3.536033 0.234126,-0.675755 0.466924,-1.358855 0.708574,-1.992975 2.855476,-3.94179 4.088254,-9.191039 10.620152,-10.823357 1.224612,-0.30603 2.694768,-0.170446 4.381828,-0.162827 z"
       id="path82"
       sodipodi:nodetypes="cccccsc"
       inkscape:label="path82" /><path
       style="fill:#ffffff;fill-opacity:1;stroke-width:0.264583"
       d="M 64.879175,41.536032 C 65.337272,39.394233 66.30915,37.261297 67.549148,35.633966 70.358843,32.196883 74.000002,31.999999 76,35.16278 c 0.594859,1.341845 0.822637,2.671629 0.926267,4.215168 l 1.073732,0.341968 3e-6,9.80268 C 72.306669,47.323149 67.993356,45.627993 64.879175,41.536032 Z"
       id="path8"
       sodipodi:nodetypes="ccccccc"
       inkscape:label="path8" /><ellipse
       style="display:none;fill:#ffffff;fill-opacity:1;stroke-width:0.260302"
       id="path10"
       cx="76.270462"
       cy="42.998562"
       rx="1.2389696"
       ry="1.2580134" /><ellipse
       style="fill:#fa0666;fill-opacity:1;stroke-width:0.31601"
       id="path5"
       cx="70.5709"
       cy="40.429161"
       rx="1.0434585"
       ry="1.051214"
       inkscape:label="path5" /><ellipse
       style="fill:#0c3050;fill-opacity:1;stroke-width:0.275504"
       id="path6"
       cx="72.36808"
       cy="37.072151"
       rx="2.0092373"
       ry="2.0721533"
       inkscape:label="path6" /><path
       style="fill:#0c3050;fill-opacity:1;stroke-width:0.264583"
       d="m 74.232864,42.26422 c -0.04101,0.05135 -0.123031,0.154057 -0.154718,0.332187 -0.03169,0.178129 -0.01304,0.431671 0.0536,0.673872 0.06664,0.242201 0.181283,0.473045 0.35606,0.675274 0.174777,0.202229 0.40968,0.375831 0.638905,0.478121 0.229225,0.102289 0.452757,0.133262 0.686402,0.144073 0.233644,0.01081 0.477385,0.0015 0.705478,-0.04595 0.228092,-0.04741 0.44052,-0.132872 0.653722,-0.266336 0.213203,-0.133465 0.427166,-0.314922 0.565241,-0.449415 0.138075,-0.134493 0.200258,-0.22202 0.23135,-0.275663 0.03109,-0.05364 0.03109,-0.781986 0.03109,-1.156037 -0.07134,0.0014 -0.14268,0.0029 -0.214019,0.0043 -0.0066,0.132011 -0.01314,0.264023 -0.077,0.430792 -0.06386,0.166768 -0.185004,0.368282 -0.340037,0.550955 -0.155033,0.182673 -0.343929,0.346475 -0.483957,0.449933 -0.140029,0.103458 -0.231159,0.14655 -0.436805,0.177104 -0.205646,0.03055 -0.525791,0.04857 -0.758111,0.02041 -0.23232,-0.02817 -0.376799,-0.102507 -0.529938,-0.218299 -0.153139,-0.115793 -0.314926,-0.273025 -0.40552,-0.390436 -0.09059,-0.117411 -0.109995,-0.195004 -0.116313,-0.283311 -0.0063,-0.08831 4.45e-4,-0.187314 0.0153,-0.281939 0.01485,-0.09463 0.0378,-0.184865 0.05094,-0.281534 0.01314,-0.09667 0.01647,-0.199766 -0.01018,-0.259198 -0.02665,-0.05943 -0.08328,-0.0752 -0.120584,-0.07555 -0.03731,-3.47e-4 -0.05527,0.01472 -0.07367,0.01521 -0.01841,4.91e-4 -0.03724,-0.01359 -0.07502,-0.01933 -0.03777,-0.0057 -0.0945,-0.0031 -0.122853,-0.0018 -0.02836,0.0013 -0.02836,0.0012 -0.06937,0.0526 z"
       id="path26"
       sodipodi:nodetypes="cccccccccccccccccccccccccccc"
       inkscape:original-d="m 74.273874,42.212868 c -0.08202,0.102705 -0.164041,0.205409 -0.246062,0.308115 0.01865,0.253553 0.03729,0.507095 0.05594,0.760646 0.114641,0.230851 0.22928,0.461695 0.343921,0.692544 0.234913,0.173609 0.469816,0.347212 0.704723,0.520816 0.223542,0.03098 0.447075,0.06195 0.670613,0.09292 0.243753,-0.0093 0.487492,-0.01871 0.73124,-0.02805 0.212436,-0.08547 0.424865,-0.170929 0.637299,-0.256395 0.213971,-0.181464 0.427934,-0.362921 0.6419,-0.54438 0.06218,-0.08753 0.124368,-0.175054 0.18655,-0.26258 0,-0.01976 0,-1.122154 0,-1.122154 -0.07134,0.0014 -0.142679,0.0029 -0.214019,0.0043 0,0 -0.01315,0.264023 -0.01971,0.396034 -0.121151,0.201526 -0.242295,0.40304 -0.363447,0.604568 -0.188914,0.163818 -0.37781,0.32762 -0.566729,0.491441 -0.09114,0.04309 -0.182267,0.08619 -0.2734,0.129279 -0.32016,0.01802 -0.640305,0.03603 -0.960456,0.05405 -0.144487,-0.07435 -0.288968,-0.148688 -0.433451,-0.223033 -0.161796,-0.15724 -0.323581,-0.314474 -0.485371,-0.471707 -0.01939,-0.07759 -0.0388,-0.155181 -0.0582,-0.232773 0.0068,-0.09902 0.01355,-0.198027 0.02029,-0.297042 0.02294,-0.09024 0.04589,-0.180478 0.06884,-0.270719 0.0033,-0.103096 0.0067,-0.206192 0.01,-0.309287 -0.05663,-0.01577 -0.113259,-0.03154 -0.169902,-0.04731 -0.01797,0.01508 -0.03593,0.03015 -0.05389,0.04522 -0.01885,-0.01409 -0.03769,-0.02817 -0.05653,-0.04225 -0.05671,0.0026 -0.113431,0.0052 -0.170145,0.0078 z"
       inkscape:path-effect="#path-effect26" /><rect
       style="fill:#ffffff;fill-opacity:1;stroke:#ffffff;stroke-width:0.035;stroke-opacity:0;stroke-dasharray:none"
       id="rect9"
       width="0.045800328"
       height="3.5323412"
       x="77.977097"
       y="45.9771" /><ellipse
       style="fill:#0c3050;fill-opacity:1;stroke-width:0.196835"
       id="path27"
       cx="74.466698"
       cy="42.409195"
       rx="0.26231843"
       ry="0.28688699" /><path
       style="fill:#ffffff;fill-opacity:1;stroke-width:0.264583"
       d="M 91.120825,41.535877 C 90.662728,39.394078 89.69085,37.261142 88.450852,35.633811 85.641157,32.196728 81.999998,31.999844 80,35.162625 c -0.594859,1.341845 -0.822637,2.671629 -0.926267,4.215168 l -1.073732,0.341968 -3e-6,9.80268 c 5.693333,-2.199447 10.006646,-3.894603 13.120827,-7.986564 z"
       id="use68"
       sodipodi:nodetypes="ccccccc"
       inkscape:label="path8" /><use
       x="0"
       y="0"
       xlink:href="#path5"
       id="use71"
       transform="matrix(-1,0,0,1,156,-1.5489698e-4)" /><ellipse
       style="fill:#fa0666;fill-opacity:1;stroke-width:0.264583"
       id="path7"
       cx="78"
       cy="44.305382"
       rx="2.0670586"
       ry="2.1693335"
       inkscape:label="path7" /><ellipse
       style="fill:#ffffff;fill-opacity:1;stroke-width:0.305405"
       id="path73"
       cx="76.471687"
       cy="42.803497"
       rx="1.4097195"
       ry="1.3889369"
       inkscape:label="path73" /><use
       x="0"
       y="0"
       xlink:href="#path6"
       id="use72"
       transform="matrix(-1,0,0,1,156,-1.5489698e-4)"
       style="display:inline" /><ellipse
       style="display:inline;fill:#ffffff;fill-opacity:1;stroke-width:0.311342"
       id="path73-5"
       cx="79.576981"
       cy="42.70195"
       rx="1.4448671"
       ry="1.4083492" /><use
       x="0"
       y="0"
       xlink:href="#path26"
       id="use28"
       transform="matrix(1.007961,0,0,1,-0.58961589,0)"
       style="display:inline" /><ellipse
       style="display:inline;fill:#0c3050;fill-opacity:1;stroke-width:0.24795"
       id="path4"
       cx="78"
       cy="40.848789"
       rx="2"
       ry="1.7564378"
       inkscape:label="path4" /><use
       x="0"
       y="0"
       xlink:href="#path27"
       id="use75"
       transform="matrix(-1,0,0,1,156.00034,0)" /><use
       x="0"
       y="0"
       xlink:href="#use28"
       id="use76"
       transform="matrix(-1,0,0,1,156.00034,0)" /><ellipse
       style="fill:#ffffff;fill-opacity:1;stroke-width:0.264583"
       id="path78"
       cx="71.105728"
       cy="36.254383"
       rx="0.58422631"
       ry="0.64492995" /><ellipse
       style="fill:#ffffff;fill-opacity:1;stroke-width:0.311"
       id="path79"
       cx="73.764168"
       cy="36.188976"
       rx="0.57668477"
       ry="0.59661245" /><ellipse
       style="display:inline;fill:#ffffff;fill-opacity:1;stroke-width:0.264583"
       id="path80"
       cx="82.342712"
       cy="36.296452"
       rx="0.72550482"
       ry="0.76292986"
       inkscape:label="path80" /><path
       style="fill:#f72400;fill-opacity:1;stroke:#ffffff;stroke-width:0.0799999;stroke-opacity:0"
       d="m 77.99989,49.522558 1.08e-4,-0.524319"
       id="path9" /></g></svg>
